<svg xmlns="http://www.w3.org/2000/svg" height="262.389" width="252.622"><path d="M35.225 80.118l-20.2 106.036 71.127 73.14 30.754-21.272 37.258-25.77 30.754-21.272-43.342-92.357z" fill="#fff8e9"/><path d="M33.051 78.477a1.223 1.223 0 011.411-.976l107.823 18.764 12.606-4.925-88.693-15.632h-.012l-38.732-6.826L3.509 196.048l9.057-10.057z" fill="#94a727"/><path d="M35.225 80.118l-20.2 106.037 4.314 4.436L39.877 86.013l103.558 16.574-1.86-3.964z" fill="#eae4c9"/><path d="M136.225 226.143l50.234-34.745-44.053-93.871-108.159-18.82-20.549 107.844 72.292 74.338z" fill="none" stroke="#3e4147" stroke-linecap="round" stroke-linejoin="round" stroke-width="3"/><path d="M142.411 97.527l16.986-6.637L26.981 67.553l-.6.415L1.5 200.103l12.2-13.552" fill="none" stroke="#3e4147" stroke-linecap="round" stroke-linejoin="round" stroke-width="3"/><path d="M96.108 124.496c-21.832-10.391-45.046 31.441-20.346 41.908 12.986 5.5 25.936-8.589 39.573-6.885 15.2 1.9 19.594 18.047 12.929 30.4-9.109 16.879-24.567 16.909-36.945 6" fill="none" stroke="#3e4147" stroke-linecap="round" stroke-linejoin="round" stroke-width="3"/><path d="M62.986 123.928c15.459 20.592 29.221 42.378 45.649 62.169 1.5 1.8 8.449 12.283 15.478 22.24M73.202 115.316s23.812 31.527 32.975 45.114c8.48 12.576 27.933 37.273 27.933 37.273" fill="none" stroke="#3e4147" stroke-linecap="round" stroke-linejoin="round" stroke-width="3"/><path d="M252.461 60.855c-.729-8.545-3.837-18.824-8.749-28.94s-11.058-18.933-17.319-24.792c-6.7-6.268-12.888-8.491-17.437-6.3l-7.225 3.507h-.011v.005l-23.069 11.2c-.005 0-.006.008-.01.011-4.536 2.209-6.61 8.452-5.831 17.578.073.857.275 1.8.4 2.69a182.254 182.254 0 00-19.292 8.324l-2.453 1.174.529 1.5-.065.062-1.035-1.276c-.008 0-.418.2-.421.2a4.8 4.8 0 00-.176.1 163.507 163.507 0 00-9.955 5.334c-6.991-7.035-13.925-10.342-18.906-7.927l-30.313 14.7c-8.929 4.332-7.649 24.777 2.911 46.544 9.065 18.68 21.594 31.386 30.607 31.874a8.347 8.347 0 004.15-.785l9.981-4.841 20.325-9.858c4.644-2.254 6.465-8.916 5.717-17.806 2.7-1.031 5.571-2.224 8.663-3.625 6.251 16.865 16.7 42.623 33.952 82.2a13.507 13.507 0 007.383 6.784 12.8 12.8 0 003.832.818 12.118 12.118 0 005.959-1.2 12.3 12.3 0 006.356-7.45 13.515 13.515 0 00-.792-10.06c-20.513-38.231-34.3-62.421-43.678-77.746a133.212 133.212 0 0011.335-7.128c5.073 4.993 10.1 8.01 14.342 8.239a8.413 8.413 0 004.147-.785l30.313-14.711c4.541-2.226 6.615-8.477 5.835-17.614zM227.44 179.53a8.545 8.545 0 01-11.328 5.5 9.815 9.815 0 01-5.333-4.872c-10.613-24.354-24.836-58.3-33.886-82.213l1.085-.526a1.736 1.736 0 00.285-.166 197.577 197.577 0 004.949-2.587c13.187 21.906 31.1 54.175 43.666 77.6a9.822 9.822 0 01.562 7.264zm-51.1-85.45a2.09 2.09 0 00-.218.134l-1.928.934a1.275 1.275 0 00-.212.083 158.184 158.184 0 01-9.651 4.138 89.729 89.729 0 00-8.15-24.99 93.357 93.357 0 00-13.193-20.435c2.942-1.685 5.993-3.3 9.1-4.832a2 2 0 00.342-.221l.024.03 3.009-1.435c15.238-7.282 28.363-13.581 38.9-9.285 14.252 9.379 14.876 28.517 14.893 31.234-.722 1.537-6.148 11.202-32.913 24.645zm-18.862 23.517l-13.828 6.709c2.7-8.675.005-23.987-7.793-40.066s-18.151-27.676-26.636-30.923l13.817-6.7c5.977-2.938 19.677 8.467 29.823 29.369 10.149 20.917 10.58 38.723 4.62 41.611zm-60.136-14.666c-10.145-20.917-10.577-38.722-4.616-41.61a4.822 4.822 0 012.42-.436c6.736.365 18.456 11.372 27.406 29.812 10.145 20.917 10.573 38.715 4.613 41.6-5.962 2.927-19.67-8.463-29.82-29.366zm5.368-46.453c5.978-2.938 19.678 8.467 29.827 29.37s10.573 38.722 4.613 41.61l-3.481 1.689c2.7-8.674.006-23.985-7.8-40.059s-18.156-27.684-26.647-30.927l3.474-1.684zm110.15 13.886a1.874 1.874 0 00.086-.5c.026-.957.475-23.545-16.867-34.908-6.046-2.5-12.464-2.158-19.319-.277-.075-.611-.225-1.272-.275-1.865-.635-7.4.741-12.49 3.773-13.953a4.961 4.961 0 012.494-.454c2.908.158 6.691 2.273 10.8 6.12 5.936 5.558 11.807 13.983 16.525 23.7s7.7 19.549 8.39 27.657c.631 7.4-.745 12.483-3.773 13.953-3.087 1.526-8.245-.848-13.9-6.32 10.213-7.86 11.973-12.852 12.069-13.152zm20.3-33.332c10.145 20.916 10.573 38.714 4.613 41.6l-.005.007-16.478 8a29.277 29.277 0 00.861-11.073c-.729-8.545-3.834-18.824-8.748-28.947s-11.063-18.926-17.324-24.785a29.134 29.134 0 00-9.233-6.178l16.492-8c5.977-2.932 19.68 8.471 29.823 29.376zm11.115 38.449c2.7-8.674.005-23.983-7.8-40.057S218.325 7.747 209.836 4.5l.729-.354c3.019-1.486 7.871.593 13.3 5.673 5.939 5.559 11.807 13.976 16.525 23.7s7.7 19.543 8.39 27.65c.631 7.4-.745 12.483-3.773 13.953z" fill="#3e4147"/><path d="M200.799 83.516c10.208-7.859 11.968-12.848 12.064-13.152a1.874 1.874 0 00.086-.5c.026-.957.475-23.545-16.867-34.908-6.046-2.5-12.464-2.158-19.319-.277-.075-.611-.225-1.272-.275-1.865-.635-7.4.741-12.49 3.773-13.953a4.961 4.961 0 012.494-.454c2.908.158 6.691 2.273 10.8 6.12 5.936 5.558 11.807 13.983 16.525 23.7s7.7 19.549 8.39 27.657c.631 7.4-.745 12.483-3.773 13.953-3.083 1.528-8.241-.849-13.898-6.321zm-22.536 13.733a1.736 1.736 0 01-.285.166l-1.085.526c9.05 23.912 23.273 57.859 33.886 82.213a9.815 9.815 0 005.333 4.872 8.545 8.545 0 0011.328-5.5 9.822 9.822 0 00-.562-7.273c-12.568-23.42-30.479-55.689-43.666-77.6a171.18 171.18 0 01-4.949 2.596zm66.747-22.124l-.734.356c2.7-8.674.005-23.983-7.8-40.057S218.326 7.747 209.837 4.5l.729-.354c3.019-1.486 7.871.593 13.3 5.673 5.939 5.559 11.807 13.976 16.525 23.7s7.7 19.543 8.39 27.65c.633 7.403-.743 12.486-3.771 13.956zm-58.163-59.469l16.492-8c5.976-2.93 19.679 8.473 29.822 29.378s10.573 38.714 4.613 41.6l-.005.007-16.478 8a29.277 29.277 0 00.861-11.073c-.729-8.545-3.834-18.824-8.748-28.947s-11.063-18.926-17.324-24.785a29.134 29.134 0 00-9.233-6.18zm-10.5 78.424a2.09 2.09 0 00-.218.134l-1.928.934a1.275 1.275 0 00-.212.083 158.184 158.184 0 01-9.651 4.138 89.729 89.729 0 00-8.15-24.99 93.357 93.357 0 00-13.193-20.435c2.942-1.685 5.993-3.3 9.1-4.832a2 2 0 00.342-.221l.024.03 3.009-1.435c15.238-7.282 28.363-13.581 38.9-9.285 14.252 9.379 14.876 28.517 14.893 31.234-.729 1.537-6.155 11.202-32.92 24.645zM99.225 58.165l3.474-1.684h.011c5.978-2.938 19.678 8.467 29.827 29.37s10.573 38.722 4.613 41.61l-3.481 1.689c2.7-8.674.006-23.985-7.8-40.059s-18.15-27.685-26.644-30.926zm58.253 59.434l-13.828 6.709c2.7-8.675.005-23.987-7.793-40.066s-18.151-27.676-26.636-30.923l13.817-6.7c5.977-2.938 19.677 8.467 29.823 29.369 10.149 20.915 10.58 38.721 4.62 41.609zm-30.313 14.7c5.96-2.888 5.532-20.686-4.613-41.6-8.95-18.44-20.67-29.447-27.406-29.812a4.822 4.822 0 00-2.42.436c-5.961 2.888-5.529 20.693 4.616 41.61s23.861 32.291 29.826 29.367z" fill="#a57f53"/><g fill="#8f6547"><path d="M97.345 102.931c10.15 20.9 23.858 32.293 29.823 29.369 5.96-2.888 5.532-20.686-4.613-41.6-8.95-18.44-20.67-29.447-27.406-29.812a4.822 4.822 0 00-2.42.436c-5.961 2.885-5.529 20.69 4.616 41.607zM176.488 32.81c.05.593.2 1.254.275 1.865 6.855-1.881 13.273-2.224 19.319.277 17.342 11.363 16.893 33.951 16.867 34.908a1.874 1.874 0 01-.086.5c-.1.3-1.856 5.293-12.064 13.152 5.657 5.472 10.815 7.846 13.9 6.32 3.028-1.47 4.4-6.553 3.773-13.953-.691-8.108-3.672-17.93-8.39-27.657s-10.589-18.145-16.525-23.7c-4.113-3.847-7.9-5.962-10.8-6.12a4.961 4.961 0 00-2.494.454c-3.038 1.464-4.41 6.554-3.775 13.954z"/><path d="M173.985 95.231a1.275 1.275 0 01.212-.083l1.928-.934a2.09 2.09 0 01.218-.134c26.765-13.443 32.191-23.108 32.917-24.645a48.5 48.5 0 00-3.524-16.886C185.552 79.075 157.7 77.665 157.7 77.665l-.008.11a87.457 87.457 0 016.642 21.591c2.98-1.16 6.161-2.501 9.651-4.135zM183.212 94.665a197.577 197.577 0 01-4.949 2.587 1.736 1.736 0 01-.285.166l-1.085.526c3.833 10.128 8.61 22.074 13.632 34.311a41.794 41.794 0 0110.133-7.55c-6.14-10.849-12.173-21.283-17.446-30.04zM237.774 78.634c4.934-2.39 5.39-15.056-.32-31.193-4.1 3.371-11.859 8.687-19.924 9.031a75.887 75.887 0 014.622 19.094 29.277 29.277 0 01-.861 11.073l16.478-8zM244.29 42.787a10.641 10.641 0 01-3.8 1.989l-.035.033c4.628 12.466 5.993 23.714 3.826 30.672l.734-.356c3.028-1.47 4.4-6.553 3.773-13.953a72.345 72.345 0 00-4.498-18.385zM137.151 127.465c5.222-2.53 5.537-16.513-1.287-34a8.286 8.286 0 01-6.439 3.8l-.091-.144c5.044 13.006 6.583 24.821 4.337 32.03zM137.393 87.657c6.563 14.8 8.768 28.594 6.26 36.649l13.828-6.709c5.263-2.551 5.515-16.745-1.477-34.43-2.179 3.838-7.156 7.729-18.6 4.413-.002.029-.011.048-.011.077z"/></g></svg>
