<svg xmlns="http://www.w3.org/2000/svg" height="129.12" width="225.553"><g transform="translate(-1283.422 -3336.693)"><path d="M1447.992 3375.677a15.012 15.012 0 011.547.516c1.406.541 6.987.993 7.986.531 3.3-1.632 3.99-18.866 2.215-23.209-1.082-2.666-4.188-2.708-9.215-2.495-.471.023-.942.045-1.413.061a60.907 60.907 0 01-1 9.228c-.745 4.722-1.521 9.6-.465 13.656a12.784 12.784 0 01.345 1.712zM1420.414 3376.517c4.343.573 8.824 1.149 11.955-.878 2.692-1.734 2.469-3.233 1.979-6.513a39.64 39.64 0 01-.433-3.965c-.07-1.508-.038-3.214 0-5 .07-3.7.153-7.856-.751-10.923a100.286 100.286 0 00-12.728.3c-2.946 6.567-3.322 18.926-3.236 26.6 1.041.099 2.116.239 3.214.379zM1400.906 3377.558c3.617-1.092 3.551-7.385 3.5-12.442-.016-1.3-.026-2.542.019-3.63a40.555 40.555 0 01.445-4.153c.586-4.072.634-5.4-2.24-6.271-1.74-.528-4-.379-6.866-.188-1.155.076-2.412.159-3.784.21a307.606 307.606 0 01-1.034 6.389c-1.075 6.364-2.186 12.935-2 19.254.362.067.741.14 1.129.217 3.49.684 7.84 1.533 10.831.614z" fill="#85c3e9"/><path d="M1352.276 3347.616c2.7-1.772 7.481-2.5 12.143-2.793H1364.437c3.67-.233 7.266-.208 9.7-.178l1.467.013c.464 0 1.314.2 1.807 1.514 1.4 3.757 1.18 26.616.208 48.283l126.711.016c-1.51-22.325-4.009-44.989-7.51-48.563-2.355-2.1-30.432-5.021-71.683-6.052-40.481-1.018-70.853.487-75.613 3.723-3.424 2.329-11.086 29.516-15.114 46.106l-.2.818-.818.2a480.087 480.087 0 00-14.086 3.742h26.471c1.601-19.945 4.097-45.245 6.499-46.829zm117.442 15.47a89.053 89.053 0 001.121-14.427 1.381 1.381 0 01.394-1.018 1.469 1.469 0 011.006-.417c14.35.14 14.344 5.992 14.331 16.617 0 .875.089 1.937.185 3.083.381 4.668.9 11.067-3.863 12.845a6.852 6.852 0 01-2.342.319 50.787 50.787 0 01-6.886-.748c-1.508-.229-2.87-.439-3.755-.484a1.387 1.387 0 01-1.317-1.346 90.981 90.981 0 011.126-14.424zm-24.348-3.213a48.986 48.986 0 00.936-10.065 1.393 1.393 0 011.368-1.464c.9-.012 1.82-.054 2.724-.095 4.683-.226 10-.465 11.913 4.216 1.96 4.8 1.8 24.1-3.558 26.748a8.132 8.132 0 01-3.226.47 27.207 27.207 0 01-6.981-.9 11.875 11.875 0 00-1.7-.528 1.739 1.739 0 01-1.572-1.8 8.7 8.7 0 00-.312-1.785c-1.208-4.618-.381-9.792.408-14.797zm-27.145-12.149a1.379 1.379 0 01.764-.684c2.084-.767 12.788-.729 15.314-.506a1.4 1.4 0 011.178.888c1.387 3.621 1.292 8.495 1.209 12.8-.032 1.719-.064 3.364 0 4.815a36.416 36.416 0 00.407 3.684c.5 3.37.974 6.552-3.226 9.257a13.423 13.423 0 01-7.421 1.848 50.422 50.422 0 01-6.395-.55c-1.486-.194-2.937-.385-4.3-.455a1.387 1.387 0 01-1.314-1.362c-.141-7.98.144-22.452 3.784-29.735zm-30.015 9.285c.423-2.511.846-5.005 1.186-7.468a1.385 1.385 0 011.346-1.2c1.8-.038 3.4-.146 4.837-.241 3.144-.2 5.629-.373 7.856.3 5.292 1.6 4.729 5.53 4.181 9.326-.168 1.19-.356 2.485-.417 3.879-.044 1.04-.031 2.227-.019 3.481.064 5.985.14 13.434-5.469 15.13a13.7 13.7 0 01-3.946.512 44.5 44.5 0 01-8.222-1.059c-.773-.15-1.505-.293-2.173-.408a1.389 1.389 0 01-1.155-1.295c-.373-6.957.83-14.075 1.995-20.957z" fill="#f3783c"/><path d="M1481.924 3377.167c2.794-1.044 2.387-6.021 2.062-10.017-.1-1.232-.191-2.371-.191-3.316.013-10.087.013-13.434-10.156-13.8a101.347 101.347 0 01-1.165 13.418 95.657 95.657 0 00-1.126 12.757c.795.095 1.731.238 2.73.388 2.653.403 6.65 1.018 7.846.57z" fill="#85c3e9"/><path d="M1318.067 3401.6c10.485.08 21.234.157 27.148.073.107-1.432.221-2.918.341-4.448h-34.887c-.123 0-.2-.1-.315-.13a115.577 115.577 0 00-12.334 4.416c3.613-.026 9.661.016 20.047.089z" fill="#e5e6e6"/><path d="M1505.937 3428.506c-.167-6.7-.513-15.454-1.039-24.768-6.789-.012-81.018-.11-127.766.293-.744 13.186-1.737 24.639-2.761 29.31 2.9-.029 6.046-.058 9.4-.089 21.069-.2 49.668-.47 60.049-.822a24.823 24.823 0 0145.88-2.272 128.29 128.29 0 008.815-.855c2.018-.257 4.169-.52 7.422-.797z" fill="#f3783c"/><path d="M1353.8 3349.935c-1.651 2.6-4.391 33.534-5.9 53.035 0 .016.019.027.019.044s-.027.044-.028.072c-.544 7.053-.92 12.5-1.026 14.618a24.988 24.988 0 0112.474 11.121l3.567-81.087c-3.674.326-7.206.952-9.106 2.197zM1374.561 3402.949c-.026-.1-.119-.171-.12-.282 0-.147.112-.245.153-.378 1.1-22.872 1.569-50.561.318-54.864l-.811-.007c-1.864-.018-5.045-.041-8.4.127l-3.78 85.934c2.374-.035 5.781-.072 9.874-.113.99-2.23 2.018-15.178 2.766-30.417z" fill="#d85927"/><path d="M1377.486 3397.229l-.2 4.025c46.438-.4 119.781-.3 127.454-.29q-.113-1.889-.235-3.79c-.064.009-.1.071-.17.071z" fill="#e5e6e6"/><path d="M1345.962 3343.816h-11.957c.187 3.315 1.245 11.543 6.562 13.41a80.6 80.6 0 015.395-13.41zM1337.6 3431.12a9.724 9.724 0 109.724 9.724 9.738 9.738 0 00-9.724-9.724z" fill="#a7a8ab"/><path d="M1442.947 3435.238c-11.158.338-38.708.6-59.148.791-9.31.088-17.239.162-21.7.224a23.756 23.756 0 01-.083 9.742c15.809-.034 65.6-.183 80.717-.433a23.322 23.322 0 01.211-10.324z" fill="#e5e6e6"/><path d="M1337.6 3418.65a22.194 22.194 0 1022.191 22.194 22.219 22.219 0 00-22.191-22.194zm0 34.692a12.5 12.5 0 1112.5-12.5 12.512 12.512 0 01-12.5 12.5z" fill="#565556"/><path d="M1498.865 3432.055c-2.257.287-4.5.557-8.095.813a19.658 19.658 0 011.148 10.722c11.778-.815 13.493-1.084 13.979-2.632a89.305 89.305 0 00.1-9.671c-3.104.268-5.177.524-7.132.768z" fill="#e5e6e6"/><circle cx="1467.23" cy="3440.844" fill="#a7a8ab" r="9.724"/><path d="M1467.23 3418.65a22.194 22.194 0 1022.191 22.194 22.222 22.222 0 00-22.191-22.194zm0 34.692a12.5 12.5 0 1112.5-12.5 12.512 12.512 0 01-12.5 12.5z" fill="#565556"/><path d="M1313.074 3436.473c-13.943-.138-23.252-.424-26.657-.544-.235 3.4-.16 6.09.362 7.346.82.347 5.095 1.425 26.313 2.124a22.305 22.305 0 01-.018-8.926z" fill="#e5e6e6"/><path d="M1337.6 3415.875a24.639 24.639 0 016.558.985c.145-2.319.44-6.8.851-12.412-1.75.022-3.779.036-6.21.036-5.886 0-13.4-.055-20.752-.1-10.175-.076-21.518-.158-23.885-.023-3.243 4.838-6.435 18.785-7.5 28.8 3.577.124 13.041.411 27.134.547a24.921 24.921 0 0123.804-17.833z" fill="#f3783c"/><g fill="none" stroke="#3e4147" stroke-width="2.777"><circle cx="1337.599" cy="3440.844" r="23.581" stroke-miterlimit="10"/><circle cx="1337.6" cy="3440.844" r="11.113" stroke-miterlimit="10"/><circle cx="1467.229" cy="3440.844" r="23.581" stroke-miterlimit="10"/><circle cx="1467.23" cy="3440.844" r="11.113" stroke-miterlimit="10"/><path d="M1490.423 3445.084c13.945-.949 15.984-1.092 16.8-3.715s-1.7-88.567-9.413-96.431c-5.787-5.9-137.337-10.488-149.067-2.51-5.141 3.5-15.686 46.93-15.686 46.93s-32.443 8.05-38.5 12.476-11.661 37.174-8.889 42.323c.686 1.274 12.184 2.168 29.125 2.688M1360.467 3447.386c13.167-.027 71.247-.184 84.245-.471M1488.985 3431.6c8.875-.542 9.654-1.162 18.962-1.869M1360.468 3434.891c12.161-.21 69.937-.558 84.254-1.1M1284.933 3434.487s10.824.447 29.779.615" stroke-miterlimit="10"/><path d="M1345.444 3418.6c0-1.6 4.651-67.893 7.594-69.829 4.985-3.28 18.757-2.732 22.563-2.732s-.466 86.317-2.92 88.443" stroke-miterlimit="10"/><path d="M1375.828 3402.654c49.229-.436 129.613-.3 129.613-.3M1293.378 3403.041c.383-.422 41.219.24 53.16 0M1376.493 3395.842l127.838.014M1310.667 3395.834l35.982.005M1390.77 3349.732c-1.273 9.207-3.667 18.854-3.17 28.162 3.828.649 9.668 2.219 13.71.995 5.672-1.717 4.26-11.655 4.5-17.342.25-5.906 2.71-10.151-2.777-11.815-2.944-.893-6.68-.117-12.263 0zM1419.464 3348.344c-3.48 6.97-3.786 20.973-3.632 29.087 5.506.292 12.512 2.452 17.285-.624 4.608-2.968 2.448-6.067 2.188-11.71-.234-5.06.7-12.42-1.124-17.179-2.829-.246-13.067-.173-14.717.426zM1447.7 3349.732c.421 7.725-3.343 17.106-1.389 24.584.929 3.552-.708 1.849 2.735 3.171 1.426.548 7.584 1.225 9.093.48 4.427-2.184 4.74-20.445 2.89-24.976s-7.793-3.334-13.329-3.259zM1472.225 3348.612c.328 9.612-2.532 19.449-2.243 28.858 2.795.14 10.171 1.837 12.423 1 4.8-1.791 2.774-10.336 2.779-14.63.011-10.64-.061-15.102-12.959-15.228zM1364.371 3346.206l-3.903 88.685M1348.741 3342.428h-16.164s-.239 15.137 8.89 16.549" stroke-linecap="round" stroke-linejoin="round"/></g></g></svg>
